<?xml version="1.0" encoding="UTF-8"?>
<!DOCTYPE svg PUBLIC "-//W3C//DTD SVG 1.1//EN" "http://www.w3.org/Graphics/SVG/1.1/DTD/svg11.dtd">
<!-- Creator: CorelDRAW X8 -->
<svg xmlns="http://www.w3.org/2000/svg" xml:space="preserve" width="100mm" height="100mm" version="1.1" style="shape-rendering:geometricPrecision; text-rendering:geometricPrecision; image-rendering:optimizeQuality; fill-rule:evenodd; clip-rule:evenodd"
viewBox="0 0 44770 44770"
 xmlns:xlink="http://www.w3.org/1999/xlink">
 <defs>
  <style type="text/css">
   <![CDATA[
    .fil0 {fill:#999999}
   ]]>
  </style>
 </defs>
 <g id="Camada_x0020_1">
  <metadata id="CorelCorpID_0Corel-Layer"/>
  <g id="_2869511058800">
   <polygon class="fil0" points="23714,23625 18694,17940 13679,13653 0,22798 0,44770 15323,44770 20751,32274 "/>
   <polygon class="fil0" points="39587,44770 40247,28075 41048,16993 44770,16087 44770,44770 "/>
   <polygon class="fil0" points="40247,28075 20751,32274 33007,44770 39587,44770 "/>
   <polygon class="fil0" points="33007,44770 15323,44770 20751,32274 "/>
   <polygon class="fil0" points="41519,14820 41048,16993 40247,28075 20751,32274 23714,23625 18694,17940 "/>
   <polygon class="fil0" points="18694,17951 13679,13669 30085,8486 43414,5151 41519,14831 "/>
   <polygon class="fil0" points="44770,16087 41048,16993 43414,5151 44770,0 "/>
   <polygon class="fil0" points="44770,0 43414,5151 30085,8486 30085,0 "/>
   <polygon class="fil0" points="30085,0 30085,8486 13679,13653 11313,0 "/>
   <polygon class="fil0" points="11313,0 13679,13669 0,22798 209,0 "/>
  </g>
 </g>
</svg>
