<?xml version="1.0" encoding="UTF-8"?>
<!DOCTYPE svg PUBLIC "-//W3C//DTD SVG 1.1//EN" "http://www.w3.org/Graphics/SVG/1.1/DTD/svg11.dtd">
<!-- Creator: CorelDRAW X8 -->
<svg xmlns="http://www.w3.org/2000/svg" xml:space="preserve" width="31.0356mm" height="38.0124mm" version="1.1" style="shape-rendering:geometricPrecision; text-rendering:geometricPrecision; image-rendering:optimizeQuality; fill-rule:evenodd; clip-rule:evenodd"
viewBox="0 0 1858 2276"
 xmlns:xlink="http://www.w3.org/1999/xlink">
 <defs>
  <style type="text/css">
   <![CDATA[
    .fil0 {fill:#848688}
   ]]>
  </style>
 </defs>
 <g id="Camada_x0020_1">
  <metadata id="CorelCorpID_0Corel-Layer"/>
  <polygon class="fil0" points="0,2276 0,1437 538,1437 538,2276 "/>
  <polygon class="fil0" points="598,0 1198,0 1198,599 598,599 "/>
  <polygon class="fil0" points="839,1437 1437,1437 1437,839 839,599 "/>
  <polygon class="fil0" points="582,1437 1420,1437 1000,2156 "/>
  <polygon class="fil0" points="538,2276 1078,2276 538,1437 "/>
  <polygon class="fil0" points="1008,2146 1846,2146 1846,1308 "/>
  <polygon class="fil0" points="1437,1677 1437,839 1857,1259 "/>
  <polygon class="fil0" points="1198,539 1796,300 1796,0 1198,0 "/>
  <polygon class="fil0" points="1558,395 1858,395 1858,934 1558,934 "/>
  <polygon class="fil0" points="1558,899 1079,659 1558,420 "/>
  <polygon class="fil0" points="598,0 598,599 0,599 0,0 "/>
  <polygon class="fil0" points="0,599 838,599 838,1437 0,1437 "/>
 </g>
</svg>
