<?xml version="1.0" encoding="UTF-8"?>
<!DOCTYPE svg PUBLIC "-//W3C//DTD SVG 1.1//EN" "http://www.w3.org/Graphics/SVG/1.1/DTD/svg11.dtd">
<!-- Creator: CorelDRAW X8 -->
<svg xmlns="http://www.w3.org/2000/svg" xml:space="preserve" width="30.2mm" height="25.3476mm" version="1.1" style="shape-rendering:geometricPrecision; text-rendering:geometricPrecision; image-rendering:optimizeQuality; fill-rule:evenodd; clip-rule:evenodd"
viewBox="0 0 434 364"
 xmlns:xlink="http://www.w3.org/1999/xlink">
 <defs>
  <style type="text/css">
   <![CDATA[
    .str0 {stroke:#373435;stroke-width:2.87345}
    .fil0 {fill:none}
   ]]>
  </style>
 </defs>
 <g id="Camada_x0020_1">
  <metadata id="CorelCorpID_0Corel-Layer"/>
  <polygon class="fil0 str0" points="1,218 145,218 145,362 1,362 "/>
  <polygon class="fil0 str0" points="1,146 73,146 73,218 1,218 "/>
  <polygon class="fil0 str0" points="1,2 145,2 145,146 1,146 "/>
  <polygon class="fil0 str0" points="73,146 145,146 145,218 73,218 "/>
  <polygon class="fil0 str0" points="145,73 289,73 289,363 145,363 "/>
  <polygon class="fil0 str0" points="145,2 145,72 289,72 289,24 184,24 "/>
  <polygon class="fil0 str0" points="289,4 432,4 432,363 289,363 "/>
  <polygon class="fil0 str0" points="184,4 184,24 289,24 289,4 "/>
 </g>
</svg>
