<?xml version="1.0" encoding="UTF-8"?>
<!DOCTYPE svg PUBLIC "-//W3C//DTD SVG 1.1//EN" "http://www.w3.org/Graphics/SVG/1.1/DTD/svg11.dtd">
<!-- Creator: CorelDRAW X8 -->
<svg xmlns="http://www.w3.org/2000/svg" xml:space="preserve" width="40mm" height="35.0166mm" version="1.1" style="shape-rendering:geometricPrecision; text-rendering:geometricPrecision; image-rendering:optimizeQuality; fill-rule:evenodd; clip-rule:evenodd"
viewBox="0 0 584 511"
 xmlns:xlink="http://www.w3.org/1999/xlink">
 <defs>
  <style type="text/css">
   <![CDATA[
    .fil0 {fill:black}
   ]]>
  </style>
 </defs>
 <g id="Camada_x0020_1">
  <metadata id="CorelCorpID_0Corel-Layer"/>
  <g id="_2708098288480">
   <g>
    <g>
     <polygon class="fil0" points="0,0 204,0 204,204 0,204 "/>
    </g>
    <g>
     <polygon class="fil0" points="204,205 204,0 336,0 336,205 "/>
    </g>
    <g>
     <polygon class="fil0" points="336,204 481,204 481,59 336,0 "/>
    </g>
    <g>
     <polygon class="fil0" points="146,204 146,350 0,350 0,204 "/>
    </g>
    <g>
     <polygon class="fil0" points="146,205 292,205 292,351 146,351 "/>
    </g>
    <g>
     <polygon class="fil0" points="292,205 497,205 394,380 "/>
    </g>
    <g>
     <polygon class="fil0" points="380,394 584,394 584,190 "/>
    </g>
    <g>
     <polygon class="fil0" points="0,482 146,424 146,351 0,351 "/>
    </g>
    <g>
     <polygon class="fil0" points="292,463 424,463 292,259 "/>
    </g>
    <g>
     <polygon class="fil0" points="481,205 481,0 584,103 "/>
    </g>
    <g>
     <polygon class="fil0" points="146,351 219,351 219,482 146,482 "/>
    </g>
    <g>
     <polygon class="fil0" points="534,511 417,453 534,394 "/>
    </g>
   </g>
  </g>
 </g>
</svg>
