<?xml version="1.0" encoding="UTF-8"?>
<!DOCTYPE svg PUBLIC "-//W3C//DTD SVG 1.1//EN" "http://www.w3.org/Graphics/SVG/1.1/DTD/svg11.dtd">
<!-- Creator: CorelDRAW X8 -->
<svg xmlns="http://www.w3.org/2000/svg" xml:space="preserve" width="210mm" height="297mm" version="1.1" style="shape-rendering:geometricPrecision; text-rendering:geometricPrecision; image-rendering:optimizeQuality; fill-rule:evenodd; clip-rule:evenodd"
viewBox="0 0 21000 29700"
 xmlns:xlink="http://www.w3.org/1999/xlink">
 <defs>
  <style type="text/css">
   <![CDATA[
    .fil0 {fill:#999999}
   ]]>
  </style>
 </defs>
 <g id="Camada_x0020_1">
  <metadata id="CorelCorpID_0Corel-Layer"/>
  <polygon class="fil0" points="-2315,12914 -2315,14314 -5015,14614 -6015,14914 -6415,15114 -7015,14814 -7915,14514 -7915,12914 "/>
  <polygon class="fil0" points="-7915,17239 -7915,15839 -5215,15539 -4215,15239 -3815,15039 -3215,15339 -2315,15639 -2315,17239 "/>
  <polygon class="fil0" points="-2315,17240 -2315,18640 -5015,18940 -6015,19240 -6415,19440 -7015,19140 -7915,18840 -7915,17240 "/>
  <polygon class="fil0" points="3285,12916 3285,14316 585,14616 -415,14916 -815,15116 -1415,14816 -2315,14516 -2315,12916 "/>
  <polygon class="fil0" points="-2314,16695 -2314,15295 386,14995 1386,14695 1786,14495 2386,14795 3286,15095 3286,16695 "/>
  <polygon class="fil0" points="-6331,20798 -6331,19398 -3631,19098 -2631,18798 -2231,18598 -1631,18898 -731,19198 -731,20798 "/>
  <polygon class="fil0" points="3286,16693 3286,18093 586,18393 -414,18693 -814,18893 -1414,18593 -2314,18293 -2314,16693 "/>
  <polygon class="fil0" points="-709,20241 -709,18841 1991,18541 2991,18241 3391,18041 3991,18341 4891,18641 4891,20241 "/>
  <polygon class="fil0" points="9183,14210 7983,14310 7783,14510 6783,14210 5883,14110 3283,14010 3283,12910 8783,12910 8783,13410 8983,13710 9183,13710 "/>
  <polygon class="fil0" points="2930,14362 4130,14262 4330,14062 5330,14362 6230,14462 8830,14562 8830,15662 3330,15662 3330,15162 3130,14862 2930,14862 "/>
  <polygon class="fil0" points="9186,16962 7986,17062 7786,17262 6786,16962 5886,16862 3286,16762 3286,15662 8786,15662 8786,16162 8986,16462 9186,16462 "/>
  <polygon class="fil0" points="4172,17155 5372,17055 5572,16855 6572,17155 7472,17255 10072,17355 10072,18455 4572,18455 4572,17955 4372,17655 4172,17655 "/>
  <polygon class="fil0" points="10795,19756 9595,19856 9395,20056 8395,19756 7495,19656 4895,19556 4895,18456 10395,18456 10395,18956 10595,19256 10795,19256 "/>
  <polygon class="fil0" points="15083,14210 13883,14310 13683,14510 12683,14210 11783,14110 9183,14010 9183,12910 14683,12910 14683,13410 14883,13710 15083,13710 "/>
  <polygon class="fil0" points="14730,15812 13530,15912 13330,16112 12330,15812 11430,15712 8830,15612 8830,14512 14330,14512 14330,15012 14530,15312 14730,15312 "/>
  <polygon class="fil0" points="9186,15983 10386,15883 10586,15683 11586,15983 12486,16083 15086,16183 15086,17283 9586,17283 9586,16783 9386,16483 9186,16483 "/>
  <polygon class="fil0" points="4970,20739 -730,20739 -730,20239 4970,20239 "/>
  <polygon class="fil0" points="4970,20074 10170,20074 10170,20574 4970,20574 "/>
  <polygon class="fil0" points="10066,17286 14466,17286 14466,17786 10066,17786 "/>
  <polygon class="fil0" points="14271,18288 10071,18288 10071,17788 14271,17788 "/>
  <polygon class="fil0" points="10914,19699 11314,19899 11514,20699 11314,20799 10514,20799 10314,20699 10514,19899 "/>
  <polygon class="fil0" points="11395,18312 11795,18512 11995,19312 11795,19412 10995,19412 10795,19312 10995,18512 "/>
  <polygon class="fil0" points="11819,20515 11419,20315 11219,19515 11419,19415 12219,19415 12419,19515 12219,20315 "/>
  <polygon class="fil0" points="-7310,19043 -6910,19243 -6710,20043 -6910,20143 -7710,20143 -7910,20043 -7710,19243 "/>
  <polygon class="fil0" points="12371,19411 11971,19211 11771,18411 11971,18311 12771,18311 12971,18411 12771,19211 "/>
  <polygon class="fil0" points="12733,19660 13133,19860 13333,20660 13133,20760 12333,20760 12133,20660 12333,19860 "/>
  <polygon class="fil0" points="13346,18312 13746,18512 13946,19312 13746,19412 12946,19412 12746,19312 12946,18512 "/>
  <polygon class="fil0" points="13646,20513 13246,20313 13046,19513 13246,19413 14046,19413 14246,19513 14046,20313 "/>
  <polygon class="fil0" points="-6501,20643 -7901,20643 -7901,20143 -6501,20143 "/>
  <polygon class="fil0" points="16183,13612 14683,13212 14883,12912 16183,13012 "/>
  <polygon class="fil0" points="15085,13321 16585,13721 16385,14021 15085,13921 "/>
  <polygon class="fil0" points="16433,14835 14933,14435 15133,14135 16433,14235 "/>
  <polygon class="fil0" points="14334,14277 15834,14677 15634,14977 14334,14877 "/>
  <polygon class="fil0" points="16230,16007 14730,15607 14930,15307 16230,15407 "/>
  <polygon class="fil0" points="15086,15704 16586,16104 16386,16404 15086,16304 "/>
  <polygon class="fil0" points="16586,17021 15086,16621 15286,16321 16586,16421 "/>
  <polygon class="fil0" points="15087,16624 16587,17024 16387,17324 15087,17224 "/>
  <polygon class="fil0" points="15767,17784 14467,17784 14467,17284 15767,17284 "/>
  <polygon class="fil0" points="15072,18587 14772,18787 14272,18587 14272,17787 14872,17787 "/>
  <polygon class="fil0" points="14923,17984 15223,17784 15723,17984 15723,18784 15123,18784 "/>
  <polygon class="fil0" points="14077,18830 14377,18630 14877,18830 14877,19630 14277,19630 "/>
  <polygon class="fil0" points="15678,19585 15378,19785 14878,19585 14878,18785 15478,18785 "/>
  <polygon class="fil0" points="13900,20386 15400,20486 15400,20786 13900,20786 "/>
  <polygon class="fil0" points="-2541,15242 -2841,15442 -3341,15242 -3341,14442 -2741,14442 "/>
  <polygon class="fil0" points="-7107,15516 -7407,15716 -7907,15516 -7907,14716 -7307,14716 "/>
  <polygon class="fil0" points="14392,19630 14592,19730 14692,20230 14592,20330 14192,20330 14092,20230 14192,19730 "/>
  <polygon class="fil0" points="4087,17843 3787,18043 3287,17843 3287,17043 3887,17043 "/>
  <polygon class="fil0" points="-7107,15114 -5907,15114 -5907,15614 -7107,15614 "/>
  <polygon class="fil0" points="-5907,14882 -4707,14882 -4707,15382 -5907,15382 "/>
  <polygon class="fil0" points="15907,15377 14507,15277 14507,14977 15907,14977 "/>
  <polygon class="fil0" points="-4706,14580 -3406,14680 -3406,14980 -4706,14980 "/>
  <polygon class="fil0" points="15247,19873 15547,19673 16047,19873 16047,20673 15447,20673 "/>
  <polygon class="fil0" points="6993,19639 8293,19739 8293,20039 6993,20039 "/>
  <polygon class="fil0" points="7072,20575 9172,20575 9172,20775 7072,20775 "/>
  <polygon class="fil0" points="6991,20037 4891,20037 4891,19837 6991,19837 "/>
  <polygon class="fil0" points="8013,14312 10113,14312 10113,14512 8013,14512 "/>
  <polygon class="fil0" points="11283,14291 9183,14291 9183,14091 11283,14091 "/>
  <polygon class="fil0" points="3286,16843 5386,16843 5386,17043 3286,17043 "/>
  <polygon class="fil0" points="10112,14291 12212,14291 12212,14491 10112,14491 "/>
  <polygon class="fil0" points="4892,19637 6992,19637 6992,19837 4892,19837 "/>
  <polygon class="fil0" points="7071,20775 4971,20775 4971,20575 7071,20575 "/>
  <polygon class="fil0" points="16044,17297 16244,17397 16344,17897 16244,17997 15844,17997 15744,17897 15844,17397 "/>
  <polygon class="fil0" points="10681,18988 10481,18888 10381,18388 10481,18288 10881,18288 10981,18388 10881,18888 "/>
  <polygon class="fil0" points="14903,20375 14703,20275 14603,19775 14703,19675 15103,19675 15203,19775 15103,20275 "/>
 </g>
</svg>
